<svg id="visual" viewBox="0 0 900 600" width="900" height="600" xmlns="http://www.w3.org/2000/svg" xmlns:xlink="http://www.w3.org/1999/xlink" version="1.1"><rect x="0" y="0" width="900" height="600" fill="#035E7B"></rect><path d="M0 461L129 463L257 374L386 467L514 443L643 382L771 452L900 366L900 601L771 601L643 601L514 601L386 601L257 601L129 601L0 601Z" fill="#a2a77f"></path><path d="M0 508L129 458L257 533L386 505L514 464L643 470L771 473L900 534L900 601L771 601L643 601L514 601L386 601L257 601L129 601L0 601Z" fill="#eff1c5"></path></svg>